<?xml version="1.0" encoding="UTF-8" standalone="no"?>
<svg width="50px" height="50px" viewBox="0 0 50 50" version="1.1" xmlns="http://www.w3.org/2000/svg" xmlns:xlink="http://www.w3.org/1999/xlink">
    <!-- Generator: Sketch 49.1 (51147) - http://www.bohemiancoding.com/sketch -->
    <title>Happy</title>
    <desc>Created with Sketch.</desc>
    <defs></defs>
    <g id="Page-1" stroke="none" stroke-width="1" fill="none" fill-rule="evenodd">
        <g id="Student-View" transform="translate(-100.000000, -523.000000)">
            <g id="Profile" transform="translate(40.000000, 125.000000)">
                <g id="Moods" transform="translate(60.000000, 398.000000)">
                    <g id="Happy">
                        <g id="Happy-selected">
                            <path d="M25,0 C11.2150164,0 0,11.2150164 0,25 C0,38.7849836 11.2150164,50 25,50 C38.7849836,50 50,38.7849836 50,25 C50,11.2150164 38.7851525,0 25,0 L25,0 Z M25,47.2972608 C18.8755929,47.2972608 13.3202814,44.8147948 9.28661198,40.8039298 C7.6757794,39.2022189 6.30836228,37.3562481 5.24365194,35.3275044 C3.62200841,32.2381046 2.70273923,28.7245436 2.70273923,25 C2.70273923,12.7052393 12.7052393,2.70273923 25,2.70273923 C30.8316666,2.70273923 36.1466033,4.954121 40.1240219,8.63221125 C42.186212,10.5389938 43.8891066,12.8288896 45.1169948,15.3883836 C46.5139732,18.3004162 47.2972608,21.5604265 47.2972608,25 C47.2972608,37.2947607 37.2947607,47.2972608 25,47.2972608 L25,47.2972608 Z" id="Shape" fill="#10ABE4"></path>
                            <circle id="Oval-2" fill="#10ABE4" cx="25" cy="25" r="23.2142857"></circle>
                            <circle id="Oval" fill="#FFFFFF" cx="16.9642857" cy="19.6428571" r="2.67857143"></circle>
                            <circle id="Oval" fill="#FFFFFF" cx="33.9285714" cy="19.6428571" r="2.67857143"></circle>
                            <path d="M24.5061866,39.2857143 C29.6890445,39.2857143 34.6560755,36.5032806 37.5,31.8835266 L35.2498085,30.3571429 C32.6382871,34.5993436 27.8614651,36.9667852 23.0782803,36.3874484 C19.3507885,35.9362476 15.9037544,33.681826 13.8571669,30.3571429 L11.6071429,31.8835266 C14.0835423,35.9067183 18.2570873,38.6346635 22.7712001,39.1813071 C23.350701,39.2514392 23.9293647,39.2857143 24.5061866,39.2857143 L24.5061866,39.2857143 Z" id="Shape" fill="#FFFFFF"></path>
                        </g>
                        <g id="Happy-not-selected">
                            <circle id="Oval-6" fill="#FFFFFF" cx="25" cy="25" r="25"></circle>
                            <path d="M24.9996622,0 C38.7846284,0 49.9993243,11.2148649 49.9993243,24.9996622 C49.9993243,38.7844595 38.7844595,49.9993243 24.9996622,49.9993243 C11.2148649,49.9993243 0,38.7844595 0,24.9996622 C0,11.2148649 11.2148649,0 24.9996622,0 Z M24.9996622,47.2966216 C37.2942568,47.2966216 47.2966216,37.2942568 47.2966216,24.9996622 C47.2966216,21.5601351 46.5133446,18.3001689 45.1163851,15.3881757 C43.8885135,12.8287162 42.1856419,10.5388514 40.1234797,8.63209459 C36.1461149,4.95405405 30.83125,2.7027027 24.9996622,2.7027027 C12.7050676,2.7027027 2.7027027,12.7050676 2.7027027,24.9996622 C2.7027027,28.7241554 3.62195946,32.2376689 5.24358108,35.327027 C6.30827703,37.3557432 7.67567568,39.2016892 9.28648649,40.8033784 C13.3201014,44.8141892 18.8753378,47.2966216 24.9996622,47.2966216 Z" id="Shape" fill="#10ABE4"></path>
                            <circle id="Oval" fill="#10ABE4" cx="16.835473" cy="19.4253378" r="2.7027027"></circle>
                            <circle id="Oval" fill="#10ABE4" cx="33.5584459" cy="19.4253378" r="2.7027027"></circle>
                            <path d="M24.9518581,38.8505068 C30.1805743,38.8505068 35.1915541,36.1765203 38.0606419,31.7368243 L35.7905405,30.2699324 C33.1559122,34.3467905 28.3368243,36.6219595 23.5113176,36.0652027 C19.7508446,35.6315878 16.2733108,33.4650338 14.2086149,30.2699324 L11.9386824,31.7368243 C14.4369932,35.6032095 18.6474662,38.2248311 23.2015203,38.7501689 C23.7861486,38.8175676 24.3699324,38.8505068 24.9518581,38.8505068 L24.9518581,38.8505068 Z" id="Shape" fill="#10ABE4"></path>
                        </g>
                    </g>
                </g>
            </g>
        </g>
    </g>
</svg>