<?xml version="1.0" encoding="UTF-8" standalone="no"?>
<svg width="40px" height="37px" viewBox="0 0 40 37" version="1.1" xmlns="http://www.w3.org/2000/svg" xmlns:xlink="http://www.w3.org/1999/xlink">
    <!-- Generator: Sketch 49.1 (51147) - http://www.bohemiancoding.com/sketch -->
    <title>Group 3</title>
    <desc>Created with Sketch.</desc>
    <defs>
        <path d="M22,8.87503906 C22,12.6719922 18.9219531,15.75 15.125,15.75 C14.6867187,15.75 14.2582031,15.7085156 13.8426953,15.6301172 L12.9047266,16.6853516 C12.7268191,16.8854989 12.4718107,17.0000096 12.2040234,17 L10.75,17 L10.75,18.5625 C10.75,19.0802734 10.3302734,19.5 9.8125,19.5 L8.25,19.5 L8.25,21.0625 C8.25,21.5802734 7.83027344,22 7.3125,22 L2.9375,22 C2.41972656,22 2,21.5802734 2,21.0625 L2,18.0133203 C2,17.7646875 2.09878906,17.5262109 2.27457031,17.3503906 L8.59496094,11.03 C8.37140625,10.3521094 8.25,9.62777344 8.25,8.875 C8.25,5.07804688 11.3280078,2.00003906 15.1249609,2 C18.933125,1.99996094 22,5.06683594 22,8.87503906 Z M15.125,7 C15.125,8.03554687 15.9644531,8.875 17,8.875 C18.0355469,8.875 18.875,8.03554687 18.875,7 C18.875,5.96445313 18.0355469,5.125 17,5.125 C15.9644531,5.125 15.125,5.96445313 15.125,7 Z" id="path-1"></path>
        <path d="M8.79289062,19.1642017 L2.29289063,12.6642017 C1.90238281,12.2736938 1.90238281,11.6405298 2.29289063,11.2499829 L3.70707031,9.83576416 C4.09757813,9.44521729 4.73078125,9.44521729 5.12128906,9.83576416 L9.5,14.214436 L18.8787109,4.83576416 C19.2692188,4.44525635 19.9024219,4.44525635 20.2929297,4.83576416 L21.7071094,6.24998291 C22.0976172,6.64049072 22.0976172,7.27365479 21.7071094,7.66420166 L10.2071094,19.1642407 C9.8165625,19.5547485 9.18339844,19.5547485 8.79289063,19.1642017 Z" id="path-3"></path>
        <rect id="path-5" x="0" y="0" width="40" height="37" rx="18.5"></rect>
        <filter x="-3.8%" y="-4.1%" width="107.5%" height="108.1%" filterUnits="objectBoundingBox" id="filter-6">
            <feGaussianBlur stdDeviation="1" in="SourceAlpha" result="shadowBlurInner1"></feGaussianBlur>
            <feOffset dx="0" dy="1" in="shadowBlurInner1" result="shadowOffsetInner1"></feOffset>
            <feComposite in="shadowOffsetInner1" in2="SourceAlpha" operator="arithmetic" k2="-1" k3="1" result="shadowInnerInner1"></feComposite>
            <feColorMatrix values="0 0 0 0 0   0 0 0 0 0   0 0 0 0 0  0 0 0 0.1 0" type="matrix" in="shadowInnerInner1"></feColorMatrix>
        </filter>
    </defs>
    <g id="Page-1" stroke="none" stroke-width="1" fill="none" fill-rule="evenodd">
        <g id="Student-View" transform="translate(-928.000000, -131.000000)">
            <g id="Key-MatchSection" transform="translate(387.000000, 125.000000)">
                <g id="Header">
                    <g id="Group-2" transform="translate(541.000000, 6.000000)">
                        <g id="key-match-assesment">
                            <g id="Group-3">
                                <g id="Icons/Solid/key" transform="translate(4.000000, 4.000000)">
                                    <mask id="mask-2" fill="white">
                                        <use xlink:href="#path-1"></use>
                                    </mask>
                                    <use id="key" fill="#000000" fill-rule="nonzero" xlink:href="#path-1"></use>
                                    <g id="Colors/Primary/white" mask="url(#mask-2)" fill="#FFFFFF" fill-rule="evenodd">
                                        <rect id="Rectangle" x="0" y="0" width="24" height="24"></rect>
                                    </g>
                                </g>
                                <g id="Icons/Solid/check" transform="translate(12.000000, 8.980341)">
                                    <mask id="mask-4" fill="white">
                                        <use xlink:href="#path-3"></use>
                                    </mask>
                                    <use id="check" stroke="#10ABE4" stroke-width="2" fill="#000000" fill-rule="nonzero" xlink:href="#path-3"></use>
                                    <g id="Colors/Primary/white" mask="url(#mask-4)" fill="#FFFFFF" fill-rule="evenodd">
                                        <rect id="Rectangle" x="0" y="0" width="24" height="24"></rect>
                                    </g>
                                </g>
                                <g id="Rectangle-4" fill="black" fill-opacity="1">
                                    <use filter="url(#filter-6)" xlink:href="#path-5"></use>
                                </g>
                            </g>
                        </g>
                    </g>
                </g>
            </g>
        </g>
    </g>
</svg>