<?xml version="1.0" encoding="UTF-8" standalone="no"?>
<svg width="50px" height="50px" viewBox="0 0 50 50" version="1.1" xmlns="http://www.w3.org/2000/svg" xmlns:xlink="http://www.w3.org/1999/xlink">
    <!-- Generator: Sketch 49.1 (51147) - http://www.bohemiancoding.com/sketch -->
    <title>Sad</title>
    <desc>Created with Sketch.</desc>
    <defs></defs>
    <g id="Page-1" stroke="none" stroke-width="1" fill="none" fill-rule="evenodd">
        <g id="Student-View" transform="translate(-246.000000, -523.000000)">
            <g id="Profile" transform="translate(40.000000, 125.000000)">
                <g id="Moods" transform="translate(60.000000, 398.000000)">
                    <g id="Sad" transform="translate(146.000000, 0.000000)">
                        <g id="sad-selected">
                            <circle id="Oval-4" fill="#10ABE4" cx="25" cy="25" r="23"></circle>
                            <path d="M24.9996622,0 C11.2148649,0 0,11.2148649 0,24.9996622 C0,38.7844595 11.2148649,49.9993243 24.9996622,49.9993243 C38.7844595,49.9993243 49.9993243,38.7844595 49.9993243,24.9996622 C49.9993243,11.2148649 38.7844595,0 24.9996622,0 L24.9996622,0 Z M24.9996622,47.2966216 C18.8751689,47.2966216 13.3201014,44.8141892 9.28631757,40.8033784 C7.67550676,39.2016892 6.30810811,37.3557432 5.24341216,35.327027 C3.62195946,32.2376689 2.7027027,28.7241554 2.7027027,24.9996622 C2.7027027,12.7050676 12.7050676,2.7027027 24.9996622,2.7027027 C30.83125,2.7027027 36.1461149,4.95405405 40.1234797,8.63209459 C42.1856419,10.5388514 43.8885135,12.8287162 45.1163851,15.3881757 C46.5133446,18.3001689 47.2966216,21.5601351 47.2966216,24.9996622 C47.2966216,37.2942568 37.2942568,47.2966216 24.9996622,47.2966216 L24.9996622,47.2966216 Z" id="Shape" fill="#10ABE4"></path>
                            <path d="M27.6415541,31.6903716 C30.6067568,32.310473 33.2702703,33.9775338 35.1415541,36.3844595 L37.2751689,34.7256757 C35.0113176,31.8135135 31.7863176,29.7959459 28.1947635,29.0447635 C22.4185811,27.8376689 16.345777,30.0670608 12.7239865,34.7256757 L14.8579392,36.3844595 C17.8505068,32.5349662 22.8685811,30.6920608 27.6415541,31.6903716 L27.6415541,31.6903716 Z" id="Shape" fill="#FFFFFF"></path>
                            <circle id="Oval" fill="#FFFFFF" cx="16.6665541" cy="19.4253378" r="2.7027027"></circle>
                            <circle id="Oval" fill="#FFFFFF" cx="33.389527" cy="19.4253378" r="2.7027027"></circle>
                        </g>
                        <g id="sad-not-selected">
                            <circle id="Oval-5" fill="#FFFFFF" cx="25" cy="25" r="25"></circle>
                            <path d="M24.9996622,0 C11.2148649,0 0,11.2148649 0,24.9996622 C0,38.7844595 11.2148649,49.9993243 24.9996622,49.9993243 C38.7844595,49.9993243 49.9993243,38.7844595 49.9993243,24.9996622 C49.9993243,11.2148649 38.7844595,0 24.9996622,0 L24.9996622,0 Z M24.9996622,47.2966216 C18.8751689,47.2966216 13.3201014,44.8141892 9.28631757,40.8033784 C7.67550676,39.2016892 6.30810811,37.3557432 5.24341216,35.327027 C3.62195946,32.2376689 2.7027027,28.7241554 2.7027027,24.9996622 C2.7027027,12.7050676 12.7050676,2.7027027 24.9996622,2.7027027 C30.83125,2.7027027 36.1461149,4.95405405 40.1234797,8.63209459 C42.1856419,10.5388514 43.8885135,12.8287162 45.1163851,15.3881757 C46.5133446,18.3001689 47.2966216,21.5601351 47.2966216,24.9996622 C47.2966216,37.2942568 37.2942568,47.2966216 24.9996622,47.2966216 L24.9996622,47.2966216 Z" id="Shape" fill="#10ABE4"></path>
                            <path d="M27.6415541,31.6903716 C30.6067568,32.310473 33.2702703,33.9775338 35.1415541,36.3844595 L37.2751689,34.7256757 C35.0113176,31.8135135 31.7863176,29.7959459 28.1947635,29.0447635 C22.4185811,27.8376689 16.345777,30.0670608 12.7239865,34.7256757 L14.8579392,36.3844595 C17.8505068,32.5349662 22.8685811,30.6920608 27.6415541,31.6903716 L27.6415541,31.6903716 Z" id="Shape" fill="#10ABE4"></path>
                            <circle id="Oval" fill="#10ABE4" cx="16.6665541" cy="19.4253378" r="2.7027027"></circle>
                            <circle id="Oval" fill="#10ABE4" cx="33.389527" cy="19.4253378" r="2.7027027"></circle>
                        </g>
                    </g>
                </g>
            </g>
        </g>
    </g>
</svg>