<?xml version="1.0" encoding="UTF-8" standalone="no"?>
<svg width="16px" height="16px" viewBox="0 0 16 16" version="1.1" xmlns="http://www.w3.org/2000/svg" xmlns:xlink="http://www.w3.org/1999/xlink">
    <!-- Generator: Sketch 49.1 (51147) - http://www.bohemiancoding.com/sketch -->
    <title>Icons/Solid/times</title>
    <desc>Created with Sketch.</desc>
    <defs>
        <path d="M17.4610778,19.2265625 L19.7063265,17.1210938 C20.0978912,16.7539062 20.0978912,16.1640625 19.7063265,15.796875 L15.6573809,12 L19.7063265,8.203125 C20.0978912,7.8359375 20.0978912,7.24609375 19.7063265,6.87890625 L17.4610778,4.7734375 C17.0695131,4.40625 16.4405103,4.40625 16.0489456,4.7734375 L12,8.5703125 L7.95105441,4.7734375 C7.55948972,4.40625 6.93048685,4.40625 6.53892216,4.7734375 L4.29367352,6.87890625 C3.90210883,7.24609375 3.90210883,7.8359375 4.29367352,8.203125 L8.34261911,12 L4.29367352,15.796875 C3.90210883,16.1640625 3.90210883,16.7539062 4.29367352,17.1210938 L6.53892216,19.2265625 C6.93048685,19.59375 7.55948972,19.59375 7.95105441,19.2265625 L12,15.4296875 L16.0489456,19.2265625 C16.4363447,19.5898438 17.0695131,19.5898438 17.4610778,19.2265625 Z" id="path-1"></path>
    </defs>
    <g id="Page-1" stroke="none" stroke-width="1" fill="none" fill-rule="evenodd">
        <g id="Student-View-Popup" transform="translate(-769.000000, -183.000000)">
            <g id="Pop-Up">
                <g id="Header" transform="translate(220.000000, 175.000000)">
                    <g id="Icons/Solid/times" transform="translate(545.000000, 4.000000)">
                        <mask id="mask-2" fill="white">
                            <use xlink:href="#path-1"></use>
                        </mask>
                        <use id="times" fill="#000000" fill-rule="nonzero" xlink:href="#path-1"></use>
                        <g id="Colors/Primary/white" mask="url(#mask-2)" fill="#FFFFFF" fill-rule="evenodd">
                            <rect id="Rectangle" x="0" y="0" width="24" height="24"></rect>
                        </g>
                    </g>
                </g>
            </g>
        </g>
    </g>
</svg>