<?xml version="1.0" encoding="UTF-8" standalone="no"?>
<svg width="18px" height="18px" viewBox="0 0 18 18" version="1.1" xmlns="http://www.w3.org/2000/svg" xmlns:xlink="http://www.w3.org/1999/xlink">
    <!-- Generator: Sketch 49.1 (51147) - http://www.bohemiancoding.com/sketch -->
    <title>Icons/Solid/arrow-left</title>
    <desc>Created with Sketch.</desc>
    <defs>
        <path d="M13.3468363,19.3867188 L12.4549715,20.2539063 C12.0773351,20.6210938 11.466689,20.6210938 11.09307,20.2539063 L3.28322732,12.6640625 C2.90559089,12.296875 2.90559089,11.703125 3.28322732,11.3398438 L11.09307,3.74609375 C11.4707064,3.37890625 12.0813525,3.37890625 12.4549715,3.74609375 L13.3468363,4.61328125 C13.7284901,4.984375 13.7204553,5.58984375 13.3307667,5.953125 L8.48978909,10.4375 L20.0358219,10.4375 C20.5701373,10.4375 21,10.8554688 21,11.375 L21,12.625 C21,13.1445313 20.5701373,13.5625 20.0358219,13.5625 L8.48978909,13.5625 L13.3307667,18.046875 C13.7244727,18.4101563 13.7325075,19.015625 13.3468363,19.3867188 Z" id="path-1"></path>
    </defs>
    <g id="Page-1" stroke="none" stroke-width="1" fill="none" fill-rule="evenodd">
        <g id="Student-View-Popup" transform="translate(-239.000000, -356.000000)">
            <g id="Pop-Up">
                <g id="Question-Section" transform="translate(220.000000, 306.000000)">
                    <g id="Icons/Solid/arrow-left" transform="translate(16.000000, 47.000000)">
                        <mask id="mask-2" fill="white">
                            <use xlink:href="#path-1"></use>
                        </mask>
                        <use id="arrow-left" fill="#000000" fill-rule="nonzero" xlink:href="#path-1"></use>
                        <g id="Colors/Primary/white" mask="url(#mask-2)" fill="#FFFFFF" fill-rule="evenodd">
                            <rect id="Rectangle" x="0" y="0" width="24" height="24"></rect>
                        </g>
                    </g>
                </g>
            </g>
        </g>
    </g>
</svg>