<?xml version="1.0" encoding="UTF-8" standalone="no"?>
<svg width="50px" height="50px" viewBox="0 0 50 50" version="1.1" xmlns="http://www.w3.org/2000/svg" xmlns:xlink="http://www.w3.org/1999/xlink">
    <!-- Generator: Sketch 49.1 (51147) - http://www.bohemiancoding.com/sketch -->
    <title>Happy-selected</title>
    <desc>Created with Sketch.</desc>
    <defs></defs>
    <g id="Page-1" stroke="none" stroke-width="1" fill="none" fill-rule="evenodd">
        <g id="Student-View" transform="translate(-100.000000, -523.000000)">
            <g id="Profile" transform="translate(40.000000, 125.000000)">
                <g id="Moods" transform="translate(60.000000, 398.000000)">
                    <g id="Happy">
                        <g id="Happy-selected">
                            <path d="M25,0 C11.2150164,0 0,11.2150164 0,25 C0,38.7849836 11.2150164,50 25,50 C38.7849836,50 50,38.7849836 50,25 C50,11.2150164 38.7851525,0 25,0 L25,0 Z M25,47.2972608 C18.8755929,47.2972608 13.3202814,44.8147948 9.28661198,40.8039298 C7.6757794,39.2022189 6.30836228,37.3562481 5.24365194,35.3275044 C3.62200841,32.2381046 2.70273923,28.7245436 2.70273923,25 C2.70273923,12.7052393 12.7052393,2.70273923 25,2.70273923 C30.8316666,2.70273923 36.1466033,4.954121 40.1240219,8.63221125 C42.186212,10.5389938 43.8891066,12.8288896 45.1169948,15.3883836 C46.5139732,18.3004162 47.2972608,21.5604265 47.2972608,25 C47.2972608,37.2947607 37.2947607,47.2972608 25,47.2972608 L25,47.2972608 Z" id="Shape" fill="#10ABE4"></path>
                            <circle id="Oval-2" fill="#10ABE4" cx="25" cy="25" r="23.2142857"></circle>
                            <circle id="Oval" fill="#FFFFFF" cx="16.9642857" cy="19.6428571" r="2.67857143"></circle>
                            <circle id="Oval" fill="#FFFFFF" cx="33.9285714" cy="19.6428571" r="2.67857143"></circle>
                            <path d="M24.5061866,39.2857143 C29.6890445,39.2857143 34.6560755,36.5032806 37.5,31.8835266 L35.2498085,30.3571429 C32.6382871,34.5993436 27.8614651,36.9667852 23.0782803,36.3874484 C19.3507885,35.9362476 15.9037544,33.681826 13.8571669,30.3571429 L11.6071429,31.8835266 C14.0835423,35.9067183 18.2570873,38.6346635 22.7712001,39.1813071 C23.350701,39.2514392 23.9293647,39.2857143 24.5061866,39.2857143 L24.5061866,39.2857143 Z" id="Shape" fill="#FFFFFF"></path>
                        </g>
                    </g>
                </g>
            </g>
        </g>
    </g>
</svg>