<?xml version="1.0" encoding="UTF-8" standalone="no"?>
<svg width="50px" height="50px" viewBox="0 0 50 50" version="1.1" xmlns="http://www.w3.org/2000/svg" xmlns:xlink="http://www.w3.org/1999/xlink">
    <!-- Generator: Sketch 49.1 (51147) - http://www.bohemiancoding.com/sketch -->
    <title>indifferent-not-selected</title>
    <desc>Created with Sketch.</desc>
    <defs></defs>
    <g id="Page-1" stroke="none" stroke-width="1" fill="none" fill-rule="evenodd">
        <g id="Student-View" transform="translate(-173.000000, -523.000000)">
            <g id="Profile" transform="translate(40.000000, 125.000000)">
                <g id="Moods" transform="translate(60.000000, 398.000000)">
                    <g id="Indifferent" transform="translate(73.000000, 0.000000)">
                        <g id="indifferent-not-selected">
                            <circle id="Path" fill="#FFFFFF" cx="25" cy="25" r="25"></circle>
                            <path d="M24.9996622,0 C11.2148649,0 0,11.2148649 0,24.9996622 C0,38.7844595 11.2148649,49.9993243 24.9996622,49.9993243 C38.7844595,49.9993243 49.9993243,38.7844595 49.9993243,24.9996622 C49.9993243,11.2148649 38.7846284,0 24.9996622,0 L24.9996622,0 Z M24.9996622,47.2966216 C18.8751689,47.2966216 13.3201014,44.8141892 9.28631757,40.8033784 C7.67550676,39.2016892 6.30810811,37.3557432 5.24341216,35.327027 C3.62195946,32.2376689 2.7027027,28.7243243 2.7027027,24.9996622 C2.7027027,12.7050676 12.7050676,2.7027027 24.9996622,2.7027027 C30.83125,2.7027027 36.1461149,4.95405405 40.1234797,8.63209459 C42.1856419,10.5388514 43.8885135,12.8287162 45.1163851,15.3883446 C46.5133446,18.3001689 47.2966216,21.5601351 47.2966216,24.9996622 C47.2966216,37.2942568 37.2942568,47.2966216 24.9996622,47.2966216 L24.9996622,47.2966216 Z" id="Shape" fill="#10ABE4"></path>
                            <rect id="Rectangle-path" fill="#10ABE4" transform="translate(24.998614, 30.743827) rotate(168.229374) translate(-24.998614, -30.743827) " x="10.9232973" y="29.3924368" width="28.1506333" height="2.70277973"></rect>
                            <circle id="Oval" fill="#10ABE4" cx="16.6380068" cy="19.5942568" r="2.7027027"></circle>
                            <circle id="Oval" fill="#10ABE4" cx="33.3609797" cy="19.5942568" r="2.7027027"></circle>
                        </g>
                    </g>
                </g>
            </g>
        </g>
    </g>
</svg>