<?xml version="1.0" encoding="UTF-8" standalone="no"?>
<svg width="14px" height="16px" viewBox="0 0 14 16" version="1.1" xmlns="http://www.w3.org/2000/svg" xmlns:xlink="http://www.w3.org/1999/xlink">
    <!-- Generator: Sketch 49.1 (51147) - http://www.bohemiancoding.com/sketch -->
    <title>trash-2</title>
    <desc>Created with Sketch.</desc>
    <defs>
        <path d="M11.3333333,3.33333333 L14,3.33333333 C14.3681898,3.33333333 14.6666667,3.63181017 14.6666667,4 C14.6666667,4.36818983 14.3681898,4.66666667 14,4.66666667 L13.3333333,4.66666667 L13.3333333,13.3333333 C13.3333333,14.4379028 12.4379028,15.3333333 11.3333333,15.3333333 L4.66666667,15.3333333 C3.56209717,15.3333333 2.66666667,14.4379028 2.66666667,13.3333333 L2.66666667,4.66666667 L2,4.66666667 C1.63181017,4.66666667 1.33333333,4.36818983 1.33333333,4 C1.33333333,3.63181017 1.63181017,3.33333333 2,3.33333333 L4.66666667,3.33333333 L4.66666667,2.66666667 C4.66666667,1.56209717 5.56209717,0.666666667 6.66666667,0.666666667 L9.33333333,0.666666667 C10.4379028,0.666666667 11.3333333,1.56209717 11.3333333,2.66666667 L11.3333333,3.33333333 Z M10,3.33333333 L10,2.66666667 C10,2.29847683 9.70152317,2 9.33333333,2 L6.66666667,2 C6.29847683,2 6,2.29847683 6,2.66666667 L6,3.33333333 L10,3.33333333 Z M12,4.66666667 L4,4.66666667 L4,13.3333333 C4,13.7015232 4.29847683,14 4.66666667,14 L11.3333333,14 C11.7015232,14 12,13.7015232 12,13.3333333 L12,4.66666667 Z M6,7.33333333 C6,6.9651435 6.29847683,6.66666667 6.66666667,6.66666667 C7.0348565,6.66666667 7.33333333,6.9651435 7.33333333,7.33333333 L7.33333333,11.3333333 C7.33333333,11.7015232 7.0348565,12 6.66666667,12 C6.29847683,12 6,11.7015232 6,11.3333333 L6,7.33333333 Z M8.66666667,7.33333333 C8.66666667,6.9651435 8.9651435,6.66666667 9.33333333,6.66666667 C9.70152317,6.66666667 10,6.9651435 10,7.33333333 L10,11.3333333 C10,11.7015232 9.70152317,12 9.33333333,12 C8.9651435,12 8.66666667,11.7015232 8.66666667,11.3333333 L8.66666667,7.33333333 Z" id="path-1"></path>
    </defs>
    <g id="Page-1" stroke="none" stroke-width="1" fill="none" fill-rule="evenodd">
        <g id="Student-View" transform="translate(-310.000000, -1209.000000)">
            <g id="Saved-Notes" transform="translate(40.000000, 1111.000000)">
                <g id="Today" transform="translate(2.000000, 66.000000)">
                    <g id="trash-2" transform="translate(267.000000, 32.000000)">
                        <mask id="mask-2" fill="white">
                            <use xlink:href="#path-1"></use>
                        </mask>
                        <use id="Combined-Shape" fill="#535353" fill-rule="nonzero" xlink:href="#path-1"></use>
                    </g>
                </g>
            </g>
        </g>
    </g>
</svg>