<svg xmlns="http://www.w3.org/2000/svg" viewBox="0 0 300 300"><defs><style>.cls-1{fill:#1aafe7;}.cls-2{fill:#fff;stroke:#fff;stroke-miterlimit:10;stroke-width:0.5px;}</style></defs><title>Asset 10</title><g id="Layer_2" data-name="Layer 2"><g id="Layer_1-2" data-name="Layer 1"><circle class="cls-1" cx="150" cy="150" r="150"/><path class="cls-2" d="M180.74,136.23l1.3-9.87a31.9,31.9,0,0,0-18.45-28.89v-.11l-.05-.47a14,14,0,0,0-27.27.51l.2,0A32,32,0,0,0,118,126.36l1.06,10.84,2.94-2.85v-8a28,28,0,0,1,56,0v8ZM150,94.41a31.63,31.63,0,0,0-8.86,1.28,9.93,9.93,0,0,1,17.73,0A32.06,32.06,0,0,0,150,94.41"/><path class="cls-2" d="M98.05,203c0-6.79,4.22-12.48,11.17-15.18L130,181.1V190h39.93v-8.9l20.75,6.74C197.73,190.55,202,196.24,202,203v11h4V203c0-8.51-5.17-15.58-13.93-19l-30.07-9.78v-7a47.07,47.07,0,0,0,7.62-8.74,36.83,36.83,0,0,0,3.66-7.44l3.81-2.2a6.48,6.48,0,0,0,3.06-4.14l.95-4.09.05-.45a5.53,5.53,0,0,0-5.52-5.53h-1.21a2.28,2.28,0,0,1-2.28-2.28v-4.67l-.11-2h-2a18,18,0,0,1-18-18h-4a18,18,0,0,1-18.13,18h-2v6.68a2.27,2.27,0,0,1-2.27,2.27h-1.26a5.53,5.53,0,0,0-5.52,5.53l1,4.53a6.49,6.49,0,0,0,3.07,4.15l3.81,2.2a36.83,36.83,0,0,0,3.65,7.44,47.38,47.38,0,0,0,7.71,8.82v6.92l-30.17,9.81c-8.66,3.36-13.83,10.43-13.83,18.94v11h4Zm44-32.51a10.4,10.4,0,0,0,5,1.32h5.86a10.45,10.45,0,0,0,5-1.37v4.59L150,185.6l-7.94-10.54Zm23.87,9.26V186H154.71l6-7.91Zm-32.24-23.44a33.39,33.39,0,0,1-3.47-7.26l-.25-.7-5.08-2.94a2.48,2.48,0,0,1-1.18-1.58l-.88-3.82a1.53,1.53,0,0,1,1.52-1.35h1.27a6.28,6.28,0,0,0,6.26-6.27v-2.76A22,22,0,0,0,150,116.92a22,22,0,0,0,18.08,12.73v2.76a6.29,6.29,0,0,0,6.26,6.28h1.22a1.53,1.53,0,0,1,1.52,1.35l-.89,3.82a2.47,2.47,0,0,1-1.17,1.58L170,148.38l-.25.7a33.62,33.62,0,0,1-3.47,7.26,47,47,0,0,1-9.49,10.14,6.21,6.21,0,0,1-3.86,1.36h-5.82a6.23,6.23,0,0,1-3.88-1.36,47,47,0,0,1-9.49-10.14m5.63,21.73,6,7.91H134v-6.17Z"/><rect class="cls-2" x="110.07" y="206.07" width="3.99" height="7.94"/><rect class="cls-2" x="185.9" y="206.03" width="3.99" height="7.99"/></g></g></svg>