<svg xmlns="http://www.w3.org/2000/svg" viewBox="0 0 300 300"><defs><style>.cls-1{fill:#1aafe7;}.cls-2{fill:#fff;stroke:#fff;stroke-miterlimit:10;stroke-width:0.5px;}</style></defs><title>Asset 10</title><g id="Layer_2" data-name="Layer 2"><g id="Layer_1-2" data-name="Layer 1"><circle class="cls-1" cx="150" cy="150" r="150"/><path class="cls-2" d="M208.42,174.2l-42.26-16.5v-7.23a13.43,13.43,0,0,0,3.21-4.35l5.4-11,6.94-3.47,1.82-8.22,0-.38a5.12,5.12,0,0,0-5.09-5.27V89.18h12.68v5.75l-6,19.74h15.53L195.21,95V85.13h-88v4.05h14.31v28.59h0a5.23,5.23,0,0,0-5.22,5.23l2.6,8.6,5.93,3.43L130,146a14,14,0,0,0,3.76,4.83v6.9L91.58,174.19a10.21,10.21,0,0,0-6.47,9.46V215.1h4V183.65a6.13,6.13,0,0,1,3.9-5.68l36.53-14.3v11h40.56v-11L207,178a6.12,6.12,0,0,1,3.89,5.67V215.1h4V183.65a10.19,10.19,0,0,0-6.47-9.45m-13.11-63.58h-4.72l2.49-8.12ZM162.1,158.13l-12.26,10.6-12.07-10.57v-3.91c.61.49,1.19,1,1.71,1.41a11.14,11.14,0,0,0,7.13,2.66h6.3a11.09,11.09,0,0,0,7.18-2.55l1.18-1c.27-.23.56-.46.83-.7Zm12.32-68.95V105l-24.24,6.24-24.64-6.25V89.18ZM133.69,144.4l-5.8-12.25-5.65-3.27-1.92-6.12a1.17,1.17,0,0,1,1.14-.93h4.08V109.12l24.64,6.25,24.24-6.24v12.69h4a1.06,1.06,0,0,1,.76.32,1.15,1.15,0,0,1,.3.63l-1.35,6.09-6.43,3.22-6.09,12.43c-.74,2-4.49,5.09-7,7.16l-1.2,1a7,7,0,0,1-4.68,1.6h-6.16a7.07,7.07,0,0,1-4.52-1.7c-.6-.51-1.28-1.06-2-1.64-2.42-2-5.73-4.66-6.43-6.53m0,26.17v-8.49l1.68-.66,10.46,9.15Zm32.45,0H153.91l10.61-9.16,1.58.62Z"/><rect class="cls-2" x="147.91" y="178.73" width="4.06" height="4.06"/><rect class="cls-2" x="147.91" y="194.95" width="4.06" height="3.93"/><rect class="cls-2" x="109.38" y="194.83" width="4.06" height="20.28"/><rect class="cls-2" x="186.44" y="194.83" width="4.06" height="20.28"/></g></g></svg>