<svg xmlns="http://www.w3.org/2000/svg" viewBox="0 0 299.8 212.33"><defs><style>.cls-1{fill:#4da9df;}</style></defs><title>Asset 1</title><g id="Layer_2" data-name="Layer 2"><g id="Arrow"><path class="cls-1" d="M274.74,12.47H199.8C199.8,0,187.34,0,187.34,0H112.4C99.93,0,99.93,12.47,99.93,12.47H25a25,25,0,0,0-25,25V187.34a25,25,0,0,0,25,25H274.8a25,25,0,0,0,25-25V37.47A25.07,25.07,0,0,0,274.74,12.47Zm-99.87,99.87v62.47H124.93V112.34H87.46l62.47-74.93,62.46,74.93ZM249.8,87.4a25,25,0,1,1,25-25A25,25,0,0,1,249.8,87.4Z"/></g></g></svg>